HIERARCHY
ROOT Hips
{
	OFFSET 0.000000 71.427986 0.000000
	CHANNELS 6 Xposition Yposition Zposition Xrotation Yrotation Zrotation
	JOINT Pelvis
	{
		OFFSET 0.000000 0.000000 0.000000
		CHANNELS 3 Xrotation Yrotation Zrotation
		JOINT LeftUpLeg
		{
			OFFSET 6.797100 -2.508499 -1.318700
			CHANNELS 3 Xrotation Yrotation Zrotation
			JOINT LeftLeg
			{
				OFFSET 0.069008 -29.241863 0.690200
				CHANNELS 3 Xrotation Yrotation Zrotation
				JOINT LeftFoot
				{
					OFFSET -0.069008 -29.568123 -0.266800
					CHANNELS 3 Xrotation Yrotation Zrotation
					JOINT LeftToeBase
					{
						OFFSET 3.145500 -8.631000 16.059900
						CHANNELS 3 Xrotation Yrotation Zrotation
						End Site
						{
							OFFSET 0.000000 18.501587 0.000000
						}
					}
				}
			}
			JOINT Left_ShortSleeve
			{
				OFFSET 0.265923 -10.480953 1.153800
				CHANNELS 3 Xrotation Yrotation Zrotation
				End Site
				{
					OFFSET 1.725763 19.823879 0.000000
				}
			}
		}
		JOINT RightUpLeg
		{
			OFFSET -6.797100 -2.508499 -1.318700
			CHANNELS 3 Xrotation Yrotation Zrotation
			JOINT RightLeg
			{
				OFFSET -0.082453 -29.241932 0.688000
				CHANNELS 3 Xrotation Yrotation Zrotation
				JOINT RightFoot
				{
					OFFSET 0.082453 -29.568058 -0.264600
					CHANNELS 3 Xrotation Yrotation Zrotation
					JOINT RightToeBase
					{
						OFFSET -3.115300 -8.682800 16.113400
						CHANNELS 3 Xrotation Yrotation Zrotation
						End Site
						{
							OFFSET 0.000000 18.567114 0.000000
						}
					}
				}
			}
			JOINT Right_ShortSleeve
			{
				OFFSET -0.265923 -10.480953 1.153800
				CHANNELS 3 Xrotation Yrotation Zrotation
				End Site
				{
					OFFSET -1.725766 19.823910 0.000000
				}
			}
		}
	}
	JOINT Spine
	{
		OFFSET 0.000000 13.368103 0.470500
		CHANNELS 3 Xrotation Yrotation Zrotation
		JOINT Spine1
		{
			OFFSET 0.147000 13.837402 0.538800
			CHANNELS 3 Xrotation Yrotation Zrotation
			JOINT Spine2
			{
				OFFSET 0.168000 16.242897 -1.435500
				CHANNELS 3 Xrotation Yrotation Zrotation
				JOINT Neck
				{
					OFFSET 0.217200 18.631500 -1.679100
					CHANNELS 3 Xrotation Yrotation Zrotation
					JOINT Head
					{
						OFFSET 0.000000 6.599396 1.385900
						CHANNELS 3 Xrotation Yrotation Zrotation
						JOINT Hat
						{
							OFFSET -0.532200 27.220596 -10.096100
							CHANNELS 3 Xrotation Yrotation Zrotation
							End Site
							{
								OFFSET 0.000000 22.029861 0.000000
							}
						}
						JOINT HairD
						{
							OFFSET -10.777400 17.437393 -1.325900
							CHANNELS 3 Xrotation Yrotation Zrotation
							JOINT HairD1
							{
								OFFSET -3.290299 -11.051193 1.062200
								CHANNELS 3 Xrotation Yrotation Zrotation
								End Site
								{
									OFFSET 0.000000 11.579437 0.000000
								}
							}
						}
						JOINT HairB
						{
							OFFSET -10.777400 17.437393 1.467900
							CHANNELS 3 Xrotation Yrotation Zrotation
							JOINT HairB1
							{
								OFFSET -1.561200 -12.956299 3.590200
								CHANNELS 3 Xrotation Yrotation Zrotation
								End Site
								{
									OFFSET 0.000000 13.534866 0.000000
								}
							}
						}
						JOINT HairA
						{
							OFFSET 9.713100 17.437393 1.467900
							CHANNELS 3 Xrotation Yrotation Zrotation
							JOINT HairA1
							{
								OFFSET 1.561200 -12.956299 3.590200
								CHANNELS 3 Xrotation Yrotation Zrotation
								End Site
								{
									OFFSET 0.000000 13.534866 0.000000
								}
							}
						}
						JOINT HairC
						{
							OFFSET 9.713100 17.437393 -1.325900
							CHANNELS 3 Xrotation Yrotation Zrotation
							JOINT HairC1
							{
								OFFSET 3.290300 -11.051193 1.062200
								CHANNELS 3 Xrotation Yrotation Zrotation
								End Site
								{
									OFFSET 0.000000 11.579437 0.000000
								}
							}
						}
					}
				}
				JOINT LeftShoulder
				{
					OFFSET 5.101800 15.108002 -2.763700
					CHANNELS 3 Xrotation Yrotation Zrotation
					JOINT LeftArm
					{
						OFFSET 9.825497 2.506317 -1.597400
						CHANNELS 3 Xrotation Yrotation Zrotation
						JOINT LeftForeArm
						{
							OFFSET 21.966244 0.000000 0.000000
							CHANNELS 3 Xrotation Yrotation Zrotation
							JOINT LeftHand
							{
								OFFSET 33.879036 0.000000 0.000000
								CHANNELS 3 Xrotation Yrotation Zrotation
								JOINT LeftHandThumb1
								{
									OFFSET 6.715286 -2.359680 3.363841
									CHANNELS 3 Xrotation Yrotation Zrotation
									JOINT LeftHandThumb2
									{
										OFFSET 2.507072 -1.447464 1.447461
										CHANNELS 3 Xrotation Yrotation Zrotation
										JOINT LeftHandThumb3
										{
											OFFSET 2.898338 -1.673355 1.673357
											CHANNELS 3 Xrotation Yrotation Zrotation
											End Site
											{
												OFFSET -0.295959 3.727692 -0.131651
											}
										}
									}
								}
								JOINT LeftHandIndex1
								{
									OFFSET 14.190811 -0.254547 3.840278
									CHANNELS 3 Xrotation Yrotation Zrotation
									JOINT LeftHandIndex2
									{
										OFFSET 3.551727 0.000000 -0.000000
										CHANNELS 3 Xrotation Yrotation Zrotation
										JOINT LeftHandIndex3
										{
											OFFSET 2.894196 0.000000 0.000000
											CHANNELS 3 Xrotation Yrotation Zrotation
											End Site
											{
												OFFSET -1.000603 2.690872 0.366626
											}
										}
									}
								}
								JOINT LeftHandMiddle1
								{
									OFFSET 13.776489 0.000000 0.000000
									CHANNELS 3 Xrotation Yrotation Zrotation
									JOINT LeftHandMiddle2
									{
										OFFSET 3.438232 0.000000 0.000000
										CHANNELS 3 Xrotation Yrotation Zrotation
										JOINT LeftHandMiddle3
										{
											OFFSET 3.691551 0.000000 0.000000
											CHANNELS 3 Xrotation Yrotation Zrotation
											End Site
											{
												OFFSET -1.082298 3.499527 0.457670
											}
										}
									}
								}
								JOINT LeftHandRing1
								{
									OFFSET 13.966164 -0.268127 -3.067488
									CHANNELS 3 Xrotation Yrotation Zrotation
									JOINT LeftHandRing2
									{
										OFFSET 3.162567 0.000000 0.000000
										CHANNELS 3 Xrotation Yrotation Zrotation
										JOINT LeftHandRing3
										{
											OFFSET 3.324348 0.000000 0.000000
											CHANNELS 3 Xrotation Yrotation Zrotation
											End Site
											{
												OFFSET -0.861900 3.184998 0.405154
											}
										}
									}
								}
								JOINT LeftHandPinky1
								{
									OFFSET 13.131393 -0.168503 -5.746925
									CHANNELS 3 Xrotation Yrotation Zrotation
									JOINT LeftHandPinky2
									{
										OFFSET 2.849182 0.000000 0.000000
										CHANNELS 3 Xrotation Yrotation Zrotation
										JOINT LeftHandPinky3
										{
											OFFSET 2.805038 0.000000 0.000000
											CHANNELS 3 Xrotation Yrotation Zrotation
											End Site
											{
												OFFSET -0.882500 2.642609 0.325652
											}
										}
									}
								}
							}
							JOINT Left_Sleeve
							{
								OFFSET 6.592125 -0.646545 0.805568
								CHANNELS 3 Xrotation Yrotation Zrotation
								End Site
								{
									OFFSET -0.000179 20.275787 -0.000000
								}
							}
						}
					}
				}
				JOINT RightShoulder
				{
					OFFSET -5.731700 15.108002 -2.763700
					CHANNELS 3 Xrotation Yrotation Zrotation
					JOINT RightArm
					{
						OFFSET -9.825497 2.506317 -1.597400
						CHANNELS 3 Xrotation Yrotation Zrotation
						JOINT RightForeArm
						{
							OFFSET -21.966242 0.000000 0.000000
							CHANNELS 3 Xrotation Yrotation Zrotation
							JOINT RightHand
							{
								OFFSET -33.879032 0.000000 0.000000
								CHANNELS 3 Xrotation Yrotation Zrotation
								JOINT RightHandThumb1
								{
									OFFSET -6.715286 -2.359680 3.363841
									CHANNELS 3 Xrotation Yrotation Zrotation
									JOINT RightHandThumb2
									{
										OFFSET -2.507072 -1.447464 1.447461
										CHANNELS 3 Xrotation Yrotation Zrotation
										JOINT RightHandThumb3
										{
											OFFSET -2.898338 -1.673355 1.673357
											CHANNELS 3 Xrotation Yrotation Zrotation
											End Site
											{
												OFFSET 0.295959 3.727692 -0.131651
											}
										}
									}
								}
								JOINT RightHandIndex1
								{
									OFFSET -14.190811 -0.254547 3.840278
									CHANNELS 3 Xrotation Yrotation Zrotation
									JOINT RightHandIndex2
									{
										OFFSET -3.551727 0.000000 -0.000000
										CHANNELS 3 Xrotation Yrotation Zrotation
										JOINT RightHandIndex3
										{
											OFFSET -2.894196 0.000000 0.000000
											CHANNELS 3 Xrotation Yrotation Zrotation
											End Site
											{
												OFFSET 1.000603 2.690872 0.366626
											}
										}
									}
								}
								JOINT RightHandMiddle1
								{
									OFFSET -13.776489 0.000000 0.000000
									CHANNELS 3 Xrotation Yrotation Zrotation
									JOINT RightHandMiddle2
									{
										OFFSET -3.438232 0.000000 0.000000
										CHANNELS 3 Xrotation Yrotation Zrotation
										JOINT RightHandMiddle3
										{
											OFFSET -3.691551 0.000000 0.000000
											CHANNELS 3 Xrotation Yrotation Zrotation
											End Site
											{
												OFFSET 1.082298 3.499527 0.457670
											}
										}
									}
								}
								JOINT RightHandRing1
								{
									OFFSET -13.966164 -0.268127 -3.067488
									CHANNELS 3 Xrotation Yrotation Zrotation
									JOINT RightHandRing2
									{
										OFFSET -3.162567 0.000000 0.000000
										CHANNELS 3 Xrotation Yrotation Zrotation
										JOINT RightHandRing3
										{
											OFFSET -3.324348 0.000000 0.000000
											CHANNELS 3 Xrotation Yrotation Zrotation
											End Site
											{
												OFFSET 0.861900 3.184998 0.405154
											}
										}
									}
								}
								JOINT RightHandPinky1
								{
									OFFSET -13.131393 -0.168503 -5.746925
									CHANNELS 3 Xrotation Yrotation Zrotation
									JOINT RightHandPinky2
									{
										OFFSET -2.849182 0.000000 0.000000
										CHANNELS 3 Xrotation Yrotation Zrotation
										JOINT RightHandPinky3
										{
											OFFSET -2.805038 0.000000 0.000000
											CHANNELS 3 Xrotation Yrotation Zrotation
											End Site
											{
												OFFSET 0.882500 2.642609 0.325652
											}
										}
									}
								}
							}
							JOINT Right_Sleeve
							{
								OFFSET -6.592125 -0.646545 0.805568
								CHANNELS 3 Xrotation Yrotation Zrotation
								End Site
								{
									OFFSET 0.000179 20.275787 -0.000000
								}
							}
						}
					}
				}
				JOINT Bind_Right_JacketString
				{
					OFFSET -3.534800 11.969597 7.200700
					CHANNELS 3 Xrotation Yrotation Zrotation
					JOINT Bind_Right_JacketString1
					{
						OFFSET -0.319900 -6.102600 2.794100
						CHANNELS 3 Xrotation Yrotation Zrotation
						End Site
						{
							OFFSET 0.000000 6.719452 0.000000
						}
					}
				}
				JOINT Bind_Left_JacketString
				{
					OFFSET 2.904800 11.969597 7.200700
					CHANNELS 3 Xrotation Yrotation Zrotation
					JOINT Bind_Left_JacketString1
					{
						OFFSET 0.364800 -5.904503 3.186800
						CHANNELS 3 Xrotation Yrotation Zrotation
						End Site
						{
							OFFSET 0.000000 6.719513 0.000000
						}
					}
				}
				JOINT HairE
				{
					OFFSET 5.915200 17.612701 -11.592200
					CHANNELS 3 Xrotation Yrotation Zrotation
					JOINT HairE1
					{
						OFFSET 0.289200 -7.171898 -1.284500
						CHANNELS 3 Xrotation Yrotation Zrotation
						End Site
						{
							OFFSET 0.000000 7.291756 0.000000
						}
					}
				}
				JOINT HairF
				{
					OFFSET -0.864800 17.612701 -11.592200
					CHANNELS 3 Xrotation Yrotation Zrotation
					JOINT HairF1
					{
						OFFSET 0.000000 -14.087097 -2.127501
						CHANNELS 3 Xrotation Yrotation Zrotation
						End Site
						{
							OFFSET 0.000000 14.246841 0.000000
						}
					}
				}
				JOINT HairG
				{
					OFFSET -8.087700 17.612701 -11.592200
					CHANNELS 3 Xrotation Yrotation Zrotation
					JOINT HairG1
					{
						OFFSET -0.293600 -6.081398 -0.910100
						CHANNELS 3 Xrotation Yrotation Zrotation
						End Site
						{
							OFFSET 0.000000 6.156120 0.000000
						}
					}
				}
			}
		}
	}
	JOINT Pouch
	{
		OFFSET 0.000000 4.394501 10.847300
		CHANNELS 3 Xrotation Yrotation Zrotation
		End Site
		{
			OFFSET 0.000000 21.880577 0.000000
		}
	}
	JOINT Bag
	{
		OFFSET -13.229000 4.813004 -0.593300
		CHANNELS 3 Xrotation Yrotation Zrotation
		End Site
		{
			OFFSET 0.000000 21.880577 0.000000
		}
	}
	JOINT OccupyGuyFacialAnim_Joint
	{
		OFFSET 1.000000 -70.206398 -1.655000
		CHANNELS 3 Xrotation Yrotation Zrotation
		End Site
		{
			OFFSET 0.000000 21.880577 0.000000
		}
	}
}
MOTION
Frames: 4
Frame Time: 0.016667
0.766958 55.881470 -0.967903 27.056825 2.977087 10.644854 0.000002 0.000000 -0.000000 -32.969859 2.616525 -0.140790 62.192738 18.181617 10.932569 -36.759897 24.357436 -7.011390 0.000001 -0.000001 0.000001 0.000000 0.000000 -0.000000 -86.441078 4.138678 -28.306092 73.225051 -8.978689 4.262358 -11.687733 -9.005658 5.401924 -0.000000 -0.000000 -0.000000 -0.000001 0.000000 -0.000000 32.119890 -0.262959 9.954803 3.579139 -0.232310 -3.938541 3.140855 -0.180144 -2.796542 -8.309812 -0.692396 -1.107458 -23.639766 -3.178999 -4.945283 0.000000 -0.000000 -0.000000 0.000000 -0.000000 -0.000000 0.000000 -0.000000 -0.000000 0.000000 -0.000000 -0.000000 -0.000003 0.000000 0.000000 0.000000 -0.000000 -0.000000 -0.000003 0.000000 0.000000 0.000000 -0.000000 -0.000000 0.000000 -0.000000 -0.000000 0.921060 -8.099537 3.227724 -22.336032 21.630675 -27.124698 -0.000013 -42.110070 -0.000014 -19.024001 -3.343328 22.787937 -2.474316 3.056077 9.318484 2.660726 4.545115 0.290500 -0.000000 0.000002 -0.000001 2.838282 -9.738375 17.774761 2.946383 5.649632 -55.058049 0.000002 -0.000000 -0.000002 0.857998 -7.704102 6.320660 1.312431 4.048633 -35.909392 0.000002 -0.000001 0.000000 -0.649884 -5.105817 -7.087034 0.259765 1.877006 -15.757023 -0.000001 0.000002 0.000004 0.822098 3.662457 -17.520514 -0.018113 -4.056681 -0.491023 0.000001 0.000000 0.000003 0.000002 0.000003 0.000003 -0.010476 -1.127501 -4.578590 -38.463377 11.015785 16.018139 0.000001 33.301304 -0.000008 4.826447 13.233976 -11.856338 -9.751011 7.203390 -8.614241 10.689686 -27.430634 -3.226677 0.000001 -0.000003 0.000000 1.269059 7.231739 -10.596063 2.736415 -5.531134 52.618913 0.000003 -0.000001 -0.000002 0.008015 5.367936 0.238525 1.251968 -3.985347 34.867634 0.000001 -0.000001 0.000004 -0.885803 3.067720 13.223272 0.268313 -1.916546 15.937056 -0.000001 0.000000 -0.000001 -0.321206 -0.767578 24.169393 0.000007 0.000004 0.000012 0.000003 -0.000001 0.000001 -0.000001 -0.000001 0.000000 -0.000002 0.000001 -0.000000 -0.000001 0.000002 0.000002 -0.000002 0.000001 -0.000000 -0.000002 0.000001 -0.000000 -0.000002 0.000001 -0.000000 -0.000001 0.000002 0.000002 -0.000002 0.000001 -0.000000 -0.000002 0.000001 -0.000000 -0.000002 0.000001 -0.000000 -0.000001 0.000002 0.000002 0.000002 0.000000 -0.000000 0.000002 0.000000 -0.000000 0.000002 0.000000 -0.000000 
-0.472878 55.851593 -1.511093 26.932075 3.615546 10.299979 0.000000 0.000001 0.000001 -25.678395 4.795582 -0.938495 57.984850 19.782349 11.291916 -36.058051 21.831187 -8.866502 0.000002 0.000001 -0.000000 0.000000 0.000000 0.000000 -87.298820 3.475675 -27.257335 74.380091 -9.013357 4.564331 -12.302883 -10.623862 3.127962 0.000000 0.000001 0.000000 -0.000000 0.000000 -0.000000 31.939754 -0.267654 10.803952 1.746688 -0.159780 -3.884518 2.816141 -0.174965 -2.865948 -8.365246 -0.534003 -1.129557 -23.694845 -2.334155 -5.041156 -0.000001 0.000000 -0.000000 -0.000001 0.000000 -0.000000 -0.000001 0.000000 -0.000000 -0.000001 0.000000 -0.000000 -0.000001 0.000000 -0.000000 -0.000001 0.000000 -0.000000 -0.000001 0.000000 -0.000000 -0.000001 0.000000 -0.000000 -0.000001 0.000000 -0.000000 0.950610 -8.072896 3.889877 -21.740636 19.374871 -24.833108 0.000002 -40.497988 -0.000000 -21.811659 -2.030258 22.795015 -3.423935 1.166792 8.910746 3.907065 7.892909 0.677800 -0.000001 0.000003 -0.000002 2.785950 -9.507611 17.952365 2.521380 5.328931 -50.617371 -0.000000 0.000000 -0.000002 0.936087 -7.392438 7.336947 1.109655 3.753366 -32.929435 -0.000001 -0.000002 -0.000003 -0.413185 -4.737514 -5.024294 0.216259 1.715457 -14.369294 0.000001 0.000001 0.000002 0.804561 3.961656 -14.556257 -0.018114 -4.056672 -0.491027 0.000000 -0.000001 0.000002 0.000001 -0.000000 0.000001 -0.041836 -1.088701 -5.472469 -37.730491 11.255694 13.846335 -0.000003 30.222747 0.000005 3.476051 11.717295 -11.121244 -9.864122 7.038933 -9.737919 10.476988 -26.771644 -3.188215 0.000001 -0.000001 -0.000000 1.125899 6.596480 -10.416798 2.303790 -5.173571 47.983667 0.000002 -0.000002 0.000001 0.074972 4.442806 -0.718156 1.061521 -3.697682 32.025736 0.000002 -0.000000 0.000001 -0.535939 2.183982 10.913408 0.240696 -1.817165 15.089542 0.000001 -0.000001 0.000003 0.015826 -1.314358 20.720492 0.000237 -0.058434 0.479350 0.000002 0.000002 -0.000004 -0.000001 -0.000001 -0.000004 -0.000000 -0.000001 -0.000001 -0.000000 0.000001 -0.000000 -0.000000 -0.000001 -0.000001 -0.000000 -0.000001 -0.000001 -0.000000 -0.000001 -0.000001 -0.000000 0.000001 -0.000000 -0.000000 -0.000001 -0.000001 -0.000000 -0.000001 -0.000001 -0.000000 -0.000001 -0.000001 -0.000000 0.000001 -0.000000 0.000000 0.000001 0.000001 0.000000 0.000001 0.000001 0.000000 0.000001 0.000001 
-1.656003 55.871231 -2.100010 26.923938 4.255236 9.949057 0.000003 -0.000001 -0.000001 -19.575961 6.692245 -1.573003 54.120042 22.252749 11.988643 -33.129136 17.043957 -11.971191 -0.000000 -0.000000 -0.000000 -0.000001 -0.000000 -0.000000 -88.191252 3.157445 -26.569253 75.188047 -8.298452 4.862947 -11.297905 -12.500429 2.923178 -0.000000 -0.000000 0.000000 0.000000 -0.000000 -0.000000 31.523884 -0.469221 11.457992 0.367807 -0.148795 -3.805485 2.452026 -0.190108 -2.912075 -8.421886 -0.369332 -1.154701 -23.743860 -1.464015 -5.130931 0.000000 0.000000 0.000000 0.000000 0.000000 0.000000 0.000000 0.000000 0.000000 0.000000 0.000000 -0.000000 0.000000 0.000000 0.000000 0.000000 0.000000 -0.000000 0.000000 0.000000 0.000000 0.000000 0.000000 0.000000 0.000000 0.000000 0.000000 0.971980 -7.959283 4.541532 -21.904135 16.849247 -22.534573 -0.000002 -39.098513 -0.000004 -23.656405 -0.285777 22.312787 -4.431670 -0.800042 8.481209 5.173225 11.378093 1.071909 -0.000000 0.000000 -0.000000 2.732504 -9.283917 18.115098 2.105907 4.960279 -45.986427 0.000000 -0.000001 -0.000002 1.004005 -7.077149 8.380213 0.914877 3.434620 -29.823150 0.000002 0.000001 -0.000003 -0.204804 -4.345591 -2.882287 0.175126 1.546086 -12.923832 -0.000000 -0.000000 0.000003 0.736814 4.283105 -11.462435 -0.018113 -4.056667 -0.491023 0.000000 0.000001 0.000001 0.000002 -0.000001 0.000003 -0.064553 -1.068755 -6.082267 -36.713257 10.859452 12.127222 0.000003 28.694311 0.000007 2.129578 10.864720 -10.955113 -9.976092 6.810321 -10.969733 10.202521 -25.928733 -3.142058 -0.000001 -0.000005 0.000001 0.977039 5.907163 -10.235284 1.881494 -4.760772 43.109316 -0.000001 0.000001 -0.000005 0.109517 3.416270 -1.705883 0.874892 -3.381636 29.003480 0.000004 0.000003 -0.000002 -0.246966 1.160336 8.534748 0.210977 -1.703153 14.122062 -0.000002 -0.000002 0.000002 0.293678 -2.003828 17.166646 0.001986 -0.166495 1.366392 0.000002 0.000002 -0.000008 -0.000001 0.000001 0.000000 0.000001 0.000000 -0.000000 0.000001 -0.000001 -0.000000 0.000001 0.000000 0.000000 0.000001 0.000000 0.000000 0.000001 0.000000 -0.000000 0.000001 -0.000001 -0.000000 0.000001 0.000000 0.000000 0.000001 0.000000 0.000000 0.000001 0.000000 -0.000000 0.000001 -0.000001 -0.000000 0.000003 -0.000001 -0.000001 0.000003 -0.000001 -0.000001 0.000003 -0.000001 -0.000001 
-2.798782 55.936462 -2.725491 27.000144 4.890423 9.616418 -0.000001 -0.000000 0.000000 -14.391287 8.342991 -2.162932 50.359408 22.966071 12.550937 -29.976560 12.999780 -13.471887 -0.000002 0.000001 0.000001 0.000000 0.000001 -0.000000 -89.033292 2.735902 -25.738984 75.617147 -7.750488 5.157753 -10.695537 -14.181967 1.777093 0.000000 0.000001 0.000000 0.000000 -0.000000 -0.000001 30.926226 -0.803947 11.881481 -0.692181 -0.174153 -3.672686 2.092759 -0.232371 -2.897375 -8.478535 -0.199915 -1.182682 -23.788210 -0.577582 -5.217083 -0.000002 -0.000000 0.000000 -0.000002 -0.000000 0.000000 -0.000002 -0.000000 0.000000 -0.000002 -0.000000 -0.000000 -0.000002 -0.000000 0.000000 -0.000002 -0.000000 -0.000000 -0.000002 -0.000000 0.000000 -0.000002 -0.000000 0.000000 -0.000002 -0.000000 0.000000 0.987110 -7.809377 5.190976 -22.482765 14.152354 -20.326245 0.000002 -37.925872 0.000000 -24.388027 1.697810 21.369758 -5.487785 -2.818751 8.036937 6.442169 14.960877 1.469186 -0.000000 -0.000001 -0.000000 2.678458 -9.065577 18.269450 1.713537 4.549978 -41.256159 0.000001 0.000003 -0.000001 1.059762 -6.759192 9.437032 0.733908 3.098134 -26.647746 0.000004 -0.000003 -0.000003 -0.032027 -3.934117 -0.698992 0.137371 1.371275 -11.440931 -0.000001 -0.000001 0.000001 0.614684 4.620197 -8.297764 -0.018108 -4.056676 -0.491023 0.000000 0.000001 0.000003 -0.000001 -0.000000 -0.000003 -0.084923 -1.078467 -6.512681 -35.552258 9.899990 10.725426 0.000009 28.127375 0.000000 0.580167 10.215334 -10.972596 -10.097466 6.540352 -12.274474 9.885089 -24.958454 -3.090270 0.000000 -0.000003 0.000000 0.826400 5.179825 -10.052944 1.483136 -4.297272 38.067906 -0.000000 0.000000 -0.000002 0.106507 2.319774 -2.714667 0.698498 -3.042298 25.856069 0.000003 0.000001 -0.000000 -0.042789 0.035391 6.110206 0.180845 -1.578603 13.069880 -0.000001 0.000000 -0.000001 0.477115 -2.801957 13.540372 0.005154 -0.268471 2.203538 0.000001 -0.000001 -0.000003 0.000001 0.000001 0.000001 -0.000001 0.000001 -0.000000 -0.000001 -0.000000 -0.000000 -0.000001 0.000001 -0.000000 -0.000001 0.000001 -0.000000 -0.000001 0.000001 -0.000000 -0.000001 -0.000000 -0.000000 -0.000001 0.000001 -0.000000 -0.000001 0.000001 -0.000000 -0.000001 0.000001 -0.000000 -0.000001 -0.000000 -0.000000 -0.000001 -0.000000 0.000000 -0.000001 -0.000000 0.000000 -0.000001 -0.000000 0.000000 
